<?xml version="1.0" encoding="UTF-8" standalone="no"?>
<!DOCTYPE svg PUBLIC "-//W3C//DTD SVG 1.1//EN" "http://www.w3.org/Graphics/SVG/1.1/DTD/svg11.dtd">
<svg width="100%" height="100%" viewBox="0 0 2838 540" version="1.1" xmlns="http://www.w3.org/2000/svg" xmlns:xlink="http://www.w3.org/1999/xlink" xml:space="preserve" xmlns:serif="http://www.serif.com/" style="fill-rule:evenodd;clip-rule:evenodd;stroke-linejoin:round;stroke-miterlimit:2;">
    <g transform="matrix(1,0,0,1,-3346,-950.351)">
        <g transform="matrix(0.959823,0,0,0.681688,134.11,950.351)">
            <rect id="Artboard1" x="3346.34" y="0" width="2956.8" height="792.152" style="fill:none;"/>
            <clipPath id="_clip1">
                <rect id="Artboard11" serif:id="Artboard1" x="3346.34" y="0" width="2956.8" height="792.152"/>
            </clipPath>
            <g clip-path="url(#_clip1)">
                <g transform="matrix(1.04186,0,0,1.46695,-139.724,1.68425e-14)">
                    <rect x="3346" y="0" width="3000" height="600" style="fill:none;"/>
                </g>
                <g transform="matrix(2.13659,0,0,1.19226,2118.76,-2399.82)">
                    <g>
                        <path d="M656.471,2539.45L635.99,2539.45L635.99,2384.42L676.951,2384.42L676.951,2436.1L697.431,2436.1L697.431,2539.45L717.912,2539.45L717.912,2591.12L779.353,2591.12L779.353,2539.45L758.872,2539.45L758.872,2436.1L738.392,2436.1L738.392,2384.42L717.912,2384.42L717.912,2332.74L697.431,2332.74L697.431,2229.39L717.912,2229.39L717.912,2177.71L738.392,2177.71L738.392,2126.03L779.353,2126.03L779.353,2074.36L717.912,2074.36L717.912,2177.71L697.431,2177.71L697.431,2229.39L676.951,2229.39L676.951,2281.07L656.471,2281.07L656.471,2332.74L635.99,2332.74L635.99,2126.03L676.951,2126.03L676.951,2074.36L574.549,2074.36L574.549,2126.03L595.03,2126.03L595.03,2539.45L574.549,2539.45L574.549,2591.12L656.471,2591.12L656.471,2539.45Z" style="fill:rgb(33,33,33);fill-rule:nonzero;"/>
                        <path d="M881.754,2539.45L861.274,2539.45L861.274,2332.74L881.754,2332.74L881.754,2281.07L902.235,2281.07L902.235,2332.74L943.195,2332.74L943.195,2229.39L881.754,2229.39L881.754,2281.07L861.274,2281.07L861.274,2229.39L799.833,2229.39L799.833,2281.07L820.313,2281.07L820.313,2591.12L881.754,2591.12L881.754,2539.45Z" style="fill:rgb(33,33,33);fill-rule:nonzero;"/>
                        <path d="M1030.97,2517.3L1045.6,2517.3L1045.6,2591.12L1089.48,2591.12L1089.48,2554.21L1074.85,2554.21L1074.85,2258.92L1060.23,2258.92L1060.23,2222.01L972.453,2222.01L972.453,2258.92L957.824,2258.92L957.824,2369.65L987.082,2369.65L987.082,2258.92L1030.97,2258.92L1030.97,2369.65L1016.34,2369.65L1016.34,2406.57L987.082,2406.57L987.082,2443.48L957.824,2443.48L957.824,2480.39L943.195,2480.39L943.195,2554.21L957.824,2554.21L957.824,2591.12L1016.34,2591.12L1016.34,2554.21L1001.71,2554.21L1001.71,2517.3L987.082,2517.3L987.082,2443.48L1016.34,2443.48L1016.34,2406.57L1030.97,2406.57L1030.97,2517.3L1016.34,2517.3L1016.34,2554.21L1030.97,2554.21L1030.97,2517.3ZM1104.11,2554.21L1104.11,2517.3L1089.48,2517.3L1089.48,2554.21L1104.11,2554.21Z" style="fill:rgb(33,33,33);fill-rule:nonzero;"/>
                        <path d="M1221.14,2554.21L1235.77,2554.21L1235.77,2517.3L1206.51,2517.3L1206.51,2554.21L1191.88,2554.21L1191.88,2517.3L1177.26,2517.3L1177.26,2480.39L1162.63,2480.39L1162.63,2295.83L1177.26,2295.83L1177.26,2258.92L1206.51,2258.92L1206.51,2369.65L1250.4,2369.65L1250.4,2258.92L1221.14,2258.92L1221.14,2222.01L1148,2222.01L1148,2258.92L1133.37,2258.92L1133.37,2295.83L1118.74,2295.83L1118.74,2517.3L1133.37,2517.3L1133.37,2554.21L1148,2554.21L1148,2591.12L1221.14,2591.12L1221.14,2554.21Z" style="fill:rgb(33,33,33);fill-rule:nonzero;"/>
                        <path d="M1332.32,2565.29L1322.08,2565.29L1322.08,2306.9L1332.32,2306.9L1332.32,2281.07L1363.04,2281.07L1363.04,2332.74L1373.28,2332.74L1373.28,2539.45L1363.04,2539.45L1363.04,2565.29L1352.8,2565.29L1352.8,2591.12L1434.72,2591.12L1434.72,2565.29L1414.24,2565.29L1414.24,2306.9L1404,2306.9L1404,2255.23L1393.76,2255.23L1393.76,2229.39L1332.32,2229.39L1332.32,2255.23L1322.08,2255.23L1322.08,2281.07L1311.84,2281.07L1311.84,2255.23L1322.08,2255.23L1322.08,2048.52L1291.36,2048.52L1291.36,2074.36L1260.64,2074.36L1260.64,2100.2L1270.88,2100.2L1270.88,2151.87L1281.12,2151.87L1281.12,2539.45L1270.88,2539.45L1270.88,2565.29L1250.4,2565.29L1250.4,2591.12L1332.32,2591.12L1332.32,2565.29Z" style="fill:rgb(33,33,33);fill-rule:nonzero;"/>
                        <path d="M1602.95,2387.37C1602.95,2286.97 1578.09,2218.32 1543.85,2218.32C1528.93,2218.32 1513.72,2228.65 1495.29,2289.92L1488.27,2313.55L1488.27,2287.71L1498.8,2251.53L1498.8,2047.78L1433.26,2086.91L1442.33,2097.98C1455.2,2114.22 1457.84,2123.08 1457.84,2146.7L1457.84,2597.03L1480.07,2578.58C1490.9,2592.6 1503.77,2597.77 1517.82,2597.77C1566.97,2597.77 1602.95,2511.39 1602.95,2387.37ZM1526.59,2275.16C1549.41,2275.16 1561.99,2332.74 1561.99,2412.47C1561.99,2502.54 1545.9,2563.81 1522.2,2563.81C1514.01,2563.81 1506.4,2557.17 1498.8,2542.4L1498.8,2312.81C1505.82,2289.92 1517.23,2275.16 1526.59,2275.16Z" style="fill:rgb(33,33,33);fill-rule:nonzero;"/>
                        <path d="M1705.94,2550.52C1707.99,2582.27 1717.35,2597.77 1733.15,2597.77C1746.61,2597.77 1762.12,2578.58 1769.14,2537.23L1768.26,2535.76C1764.16,2545.35 1760.07,2546.83 1756.85,2546.83C1750.41,2546.83 1745.73,2535.76 1745.73,2516.56L1745.73,2348.98C1745.73,2267.04 1727.01,2219.79 1686.05,2219.79C1650.06,2219.79 1623.43,2265.56 1623.43,2323.14C1623.43,2350.46 1631.04,2372.61 1642.45,2372.61C1654.45,2372.61 1662.93,2348.98 1660.3,2303.21L1653.28,2303.21C1653.28,2280.33 1660.88,2259.66 1678.44,2259.66C1696.87,2259.66 1705.06,2289.92 1705.06,2331.26L1705.06,2378.51L1661.76,2414.69C1636.89,2435.36 1617.58,2456.03 1617.58,2512.87C1617.58,2568.24 1631.63,2599.24 1655.91,2599.24C1677.85,2599.24 1693.07,2568.98 1707.4,2520.99L1716.18,2491.46L1716.18,2517.3L1705.94,2550.52ZM1656.5,2491.46C1656.5,2461.2 1663.23,2442 1679.61,2427.97L1705.06,2405.83L1705.06,2498.85C1698.04,2525.42 1687.51,2540.92 1676.39,2540.92C1663.52,2540.92 1656.5,2522.47 1656.5,2491.46Z" style="fill:rgb(33,33,33);fill-rule:nonzero;"/>
                        <path d="M1834.97,2217.58L1769.43,2261.13L1778.5,2272.21C1791.37,2287.71 1794.01,2296.57 1794.01,2321.67L1794.01,2489.25C1794.01,2556.43 1810.1,2599.24 1837.31,2599.24C1863.35,2599.24 1880.32,2553.47 1891.73,2515.82L1897.58,2496.63L1897.58,2520.25L1887.05,2554.21L1887.05,2598.51L1952.58,2571.19L1942.05,2557.9C1930.06,2543.14 1928.01,2534.28 1928.01,2510.66L1928.01,2217.58L1862.47,2261.13L1871.54,2272.21C1884.41,2287.71 1887.05,2296.57 1887.05,2321.67L1887.05,2496.63C1880.02,2524.68 1869.49,2542.4 1857.79,2542.4C1841.99,2542.4 1834.97,2514.35 1834.97,2475.22L1834.97,2217.58Z" style="fill:rgb(33,33,33);fill-rule:nonzero;"/>
                    </g>
                </g>
            </g>
        </g>
    </g>
</svg>
